# xmcd
#
# Track frame offsets: 
#        150
#        25862
#        89557
#        126279
#        180605
#        255289
#
# Disc length: 4281 seconds
#
# Revision: 2
# Processed by: cddbd v1.5.2PL0 Copyright (c) Steve Scherf et al.
# Submitted via: ExactAudioCopy v1.3
#
DISCID=4610b706
DTITLE=Miles Davis - 1968 - Davis - Filles De Kilimanjaro (Perfect Col
DTITLE=l 13)
DYEAR=1968
DGENRE=Jazz
TTITLE0=Miles Davis - Wayne Shorter, Chick Corea, Dave Holland, Tony Wi
TTITLE0=lliams - Frelon Brun
TTITLE1=Miles Davis - Wayne Shorter, Herbie Hancock, Ron Carter, Tony W
TTITLE1=illiams - Tout De Suite
TTITLE2=Miles Davis - Wayne Shorter, Herbie Hancock, Ron Carter, Tony W
TTITLE2=illiams - Petits Machins
TTITLE3=Miles Davis - Wayne Shorter, Herbie Hancock, Ron Carter, Tony W
TTITLE3=illiams - Filles De Kilimanjaro
TTITLE4=Miles Davis - Wayne Shorter, Chick Corea, Dave Holland, Tony Wi
TTITLE4=lliams - Mademoiselle Mabry
TTITLE5=Miles Davis - Wayne Shorter, Herbie Hancock, Ron Carter, Tony W
TTITLE5=illiams - Tout De Suite (Alternative Take)
EXTD=
EXTT0=
EXTT1=
EXTT2=
EXTT3=
EXTT4=
EXTT5=
PLAYORDER=
